<svg width="25" height="24" viewBox="0 0 25 24" fill="none" xmlns="http://www.w3.org/2000/svg">
<g clip-path="url(#clip0_61_543)">
<path d="M18.273 17.94C16.5636 19.243 14.4821 19.9649 12.333 20C5.33301 20 1.33301 12 1.33301 12C2.5769 9.68192 4.30214 7.65663 6.39301 6.06003M10.233 4.24002C10.9213 4.0789 11.6261 3.99836 12.333 4.00003C19.333 4.00003 23.333 12 23.333 12C22.726 13.1356 22.0021 14.2048 21.173 15.19M14.453 14.12C14.1784 14.4148 13.8472 14.6512 13.4792 14.8151C13.1112 14.9791 12.7139 15.0673 12.3111 15.0744C11.9083 15.0815 11.5082 15.0074 11.1346 14.8565C10.7611 14.7056 10.4217 14.4811 10.1369 14.1962C9.85198 13.9113 9.6274 13.572 9.47652 13.1984C9.32563 12.8249 9.25153 12.4247 9.25864 12.0219C9.26575 11.6191 9.35392 11.2219 9.51788 10.8539C9.68185 10.4859 9.91826 10.1547 10.213 9.88003" stroke="#98A2B3" stroke-width="2" stroke-linecap="round" stroke-linejoin="round"/>
<path d="M1.33301 1L23.333 23" stroke="#98A2B3" stroke-width="2" stroke-linecap="round" stroke-linejoin="round"/>
</g>
<defs>
<clipPath id="clip0_61_543">
<rect width="24" height="24" fill="white" transform="translate(0.333008)"/>
</clipPath>
</defs>
</svg>
