<svg width="20.000000" height="20.000000" viewBox="0 0 20 20" fill="none" xmlns="http://www.w3.org/2000/svg" xmlns:xlink="http://www.w3.org/1999/xlink">
	<desc>
			Created with Pixso.
	</desc>
	<defs>
		<clipPath id="clip3_26521">
			<rect id="clipboard" width="20.000000" height="20.000000" fill="white" fill-opacity="0"/>
		</clipPath>
	</defs>
	<rect id="clipboard" width="20.000000" height="20.000000" fill="#FFFFFF" fill-opacity="0"/>
	<g clip-path="url(#clip3_26521)">
		<path id="Icon" d="M13.33 3.33L15 3.33C15.44 3.33 15.86 3.5 16.17 3.82C16.49 4.13 16.66 4.55 16.66 5L16.66 16.66C16.66 17.1 16.49 17.53 16.17 17.84C15.86 18.15 15.44 18.33 15 18.33L5 18.33C4.55 18.33 4.13 18.15 3.82 17.84C3.5 17.53 3.33 17.1 3.33 16.66L3.33 5C3.33 4.55 3.5 4.13 3.82 3.82C4.13 3.5 4.55 3.33 5 3.33L6.66 3.33M12.5 1.66C12.96 1.66 13.33 2.03 13.33 2.5L13.33 4.16C13.33 4.62 12.96 5 12.5 5L7.5 5C7.04 5 6.66 4.62 6.66 4.16L6.66 2.5C6.66 2.03 7.04 1.66 7.5 1.66L12.5 1.66Z" stroke="#1570EF" stroke-opacity="1.000000" stroke-width="2.000000" stroke-linejoin="round" stroke-linecap="round"/>
	</g>
</svg>
