<svg width="40.000000" height="40.000000" viewBox="0 0 40 40" fill="none" xmlns="http://www.w3.org/2000/svg" xmlns:xlink="http://www.w3.org/1999/xlink">
	<defs>
		<clipPath id="clip2_20490">
			<rect id="user-plus" width="20.000000" height="20.000000" transform="translate(10.000000 10.000000)" fill="white" fill-opacity="0"/>
		</clipPath>
		<clipPath id="clip2_20491">
			<rect id="_Nav item button" rx="20.000000" width="40.000000" height="40.000000" fill="white" fill-opacity="0"/>
		</clipPath>
	</defs>
	<rect id="_Nav item button" rx="20.000000" width="40.000000" height="40.000000" fill="#1570EF" fill-opacity="1.000000"/>
	<g clip-path="url(#clip2_20491)">
		<rect id="user-plus" width="20.000000" height="20.000000" transform="translate(10.000000 10.000000)" fill="#FFFFFF" fill-opacity="0"/>
		<g clip-path="url(#clip2_20490)">
			<path id="Icon" d="M23.33 27.5L23.33 25.83C23.33 24.94 22.98 24.1 22.35 23.47C21.73 22.85 20.88 22.5 20 22.5L14.16 22.5C13.28 22.5 12.43 22.85 11.8 23.47C11.18 24.1 10.83 24.94 10.83 25.83L10.83 27.5M17.08 19.16C15.24 19.16 13.75 17.67 13.75 15.83C13.75 13.99 15.24 12.5 17.08 12.5C18.92 12.5 20.41 13.99 20.41 15.83C20.41 17.67 18.92 19.16 17.08 19.16ZM26.66 16.66L26.66 21.66M29.16 19.16L24.16 19.16" stroke="#FFFFFF" stroke-opacity="1.000000" stroke-width="1.666667" stroke-linejoin="round"/>
		</g>
	</g>
</svg>
