<svg width="40.000000" height="40.000000" viewBox="0 0 40 40" fill="none" xmlns="http://www.w3.org/2000/svg" xmlns:xlink="http://www.w3.org/1999/xlink">
	<defs>
		<clipPath id="clip2_20487">
			<rect id="bell" width="20.000000" height="20.000000" transform="translate(10.000000 10.000000)" fill="white" fill-opacity="0"/>
		</clipPath>
		<clipPath id="clip2_20488">
			<rect id="_Nav item button" rx="20.000000" width="40.000000" height="40.000000" fill="white" fill-opacity="0"/>
		</clipPath>
	</defs>
	<rect id="_Nav item button" rx="20.000000" width="40.000000" height="40.000000" fill="#EFF8FF" fill-opacity="1.000000"/>
	<g clip-path="url(#clip2_20488)">
		<rect id="bell" width="20.000000" height="20.000000" transform="translate(10.000000 10.000000)" fill="#FFFFFF" fill-opacity="0"/>
		<g clip-path="url(#clip2_20487)">
			<path id="Icon" d="M23.53 13.13C22.59 12.19 21.32 11.66 20 11.66C18.67 11.66 17.4 12.19 16.46 13.13C15.52 14.06 15 15.34 15 16.66C15 22.5 12.5 24.16 12.5 24.16L27.5 24.16C27.5 24.16 25 22.5 25 16.66C25 15.34 24.47 14.06 23.53 13.13ZM21.44 27.5C21.29 27.75 21.08 27.96 20.83 28.1C20.57 28.25 20.29 28.33 20 28.33C19.7 28.33 19.42 28.25 19.16 28.1C18.91 27.96 18.7 27.75 18.55 27.5" stroke="#1570EF" stroke-opacity="1.000000" stroke-width="1.666667" stroke-linejoin="round" stroke-linecap="round"/>
		</g>
	</g>
</svg>
